<?xml version="1.0" encoding="utf-8"?><svg xmlns="http://www.w3.org/2000/svg" xmlns:xlink="http://www.w3.org/1999/xlink"><symbol viewBox="0 0 26 26" id="fb" xmlns="http://www.w3.org/2000/svg"><path d="M17 5.72v2.24c0 .39-.19.48-.53.48H14.9a.69.69 0 0 0-.81.7v1.78h2.86v2.48h-2.87v7.3h-2.93v-7.26H8.62v-2.55h1.49c1 0 1 0 1-1a4.18 4.18 0 0 1 .57-2.53 3.32 3.32 0 0 1 2.62-1.63c.87-.06 1.74 0 2.66 0" data-name="Article table2"/></symbol><symbol id="rss" viewBox="0 0 26 26" xmlns="http://www.w3.org/2000/svg"><defs><style>.bcls-1{fill:#fff}</style></defs><g id="bArticle"><g id="bGroup-11"><g id="bGroup-15"><g id="bGroup-16"><g id="bPage-1"><path id="bFill-1" class="bcls-1" d="M8.81 7.44c.76.09 1.46.14 2.14.27a9.73 9.73 0 0 1 4 1.73 10 10 0 0 1 3.91 6.31c.12.57.12 1.16.19 1.74 0 .22-.07.28-.28.27h-1.5c-.23 0-.29-.09-.3-.3a7.84 7.84 0 0 0-2-5.12 8 8 0 0 0-5.22-2.75 5.67 5.67 0 0 0-.63 0c-.21-.05-.31-.15-.31-.34V7.44"/><g id="bGroup-5"><path id="bFill-3" class="bcls-1" d="M14.57 17.76h-.76c-.2 0-.29-.06-.3-.27a4.51 4.51 0 0 0-1.19-2.94A4.7 4.7 0 0 0 9.11 13c-.22 0-.3-.07-.3-.29v-1.45c0-.24.07-.32.31-.31A6.65 6.65 0 0 1 15.53 17c.09.74.09.74-.63.74z"/></g><path id="bFill-6" class="bcls-1" d="M11.59 16.34a1.37 1.37 0 0 1-1.32 1.42h-.07a1.35 1.35 0 0 1-1.39-1.31v-.09a1.36 1.36 0 0 1 1.3-1.42h.1a1.33 1.33 0 0 1 1.38 1.28v.12"/></g></g></g></g></g></symbol><symbol viewBox="0 0 26 26" id="telegram" xmlns="http://www.w3.org/2000/svg"><path d="M6 12.52l1.21.4 2.07.73h.07l1.86-1.15 2.36-1.43 2.76-1.73a.85.85 0 0 1 .25-.08.09.09 0 0 1 .11.06.2.2 0 0 1 0 .22l-.09.1-1.29 1.2-2 1.87-2.31 2.1a.16.16 0 0 0 0 .09l-.09.54-.3 1.89a.7.7 0 0 1 0 .28l2.06-1.87h.07l1.08.83L16 18.29a.58.58 0 0 0 .17.09.18.18 0 0 0 .22-.12l.21-1.06.31-1.61.26-1.31.35-1.77.29-1.5c.14-.7.27-1.4.4-2.09l.33-1.54v-.14L6 12.52m10.09 7a1.31 1.31 0 0 1-.52-.13 1.49 1.49 0 0 1-.26-.18l-2.47-1.9c-.12-.09-.12-.09-.23 0-.51.47-1 .93-1.53 1.4a.89.89 0 0 1-.77.2.87.87 0 0 1-.67-.58 8.73 8.73 0 0 1-.31-.88c-.15-.45-.33-.9-.43-1.36l-.44-1.45a.13.13 0 0 0-.11-.11l-1.92-.65-.8-.27a1.41 1.41 0 0 1-.8-.61 1 1 0 0 1 .32-1.3 2.71 2.71 0 0 1 .58-.29l1.43-.61 1.51-.63 1.41-.58 2-.85 2.84-1.19 1.87-.78 1.4-.58a1.18 1.18 0 0 1 .91 0 1 1 0 0 1 .65.81 2.42 2.42 0 0 1-.08.82c-.11.54-.21 1.09-.32 1.64s-.2 1-.3 1.53l-.3 1.53-.37 1.89-.41 2.11-.27 1.37c0 .24-.09.47-.14.71a1.15 1.15 0 0 1-.28.5 1.39 1.39 0 0 1-1.15.44"/></symbol><symbol viewBox="0 0 455.731 455.731" id="tgm" xmlns="http://www.w3.org/2000/svg"><path d="M0 0h455.731v455.731H0z"/><path d="M358.844 100.6L54.091 219.359c-9.871 3.847-9.273 18.012.888 21.012l77.441 22.868 28.901 91.706c3.019 9.579 15.158 12.483 22.185 5.308l40.039-40.882 78.56 57.665c9.614 7.057 23.306 1.814 25.747-9.859l52.031-248.76c2.548-12.185-9.44-22.337-21.039-17.817zm-38.208 55.206L179.08 280.984a7.603 7.603 0 0 0-2.519 4.847l-5.45 48.448c-.178 1.58-2.389 1.789-2.861.271l-22.423-72.253a7.605 7.605 0 0 1 3.255-8.717l167.163-103.676c3.844-2.386 7.78 2.906 4.391 5.902z"/></symbol><symbol viewBox="0 0 26 26" id="vk" xmlns="http://www.w3.org/2000/svg"><path d="M10.3 9.13a4.14 4.14 0 0 1 1.05-.42 10.73 10.73 0 0 1 1.93 0c.74.05 1 .33 1 1.09s-.06 1.46 0 2.19a4.1 4.1 0 0 0 .17.82l.36.21c.16-.28.33-.55.49-.83.48-.86 1-1.72 1.41-2.6a.8.8 0 0 1 .76-.59h2.2c.74 0 .91.33.58 1s-.77 1.24-1.18 1.84c-.19.28-.42.54-.63.82-.64.87-.62 1 .14 1.72a18.33 18.33 0 0 1 1.51 1.67 1 1 0 0 1 .2.85c-.11.21-.53.26-.82.37a1.74 1.74 0 0 1-.32 0 3.52 3.52 0 0 1-3.75-1.54c-.13-.2-.55-.43-.67-.36a1.13 1.13 0 0 0-.43.71c-.23 1.2-.22 1.19-1.42 1.19a5.23 5.23 0 0 1-4.06-1.94 22.31 22.31 0 0 1-3.33-5.56c-.21-.47 0-.71.45-.72a13 13 0 0 1 2 0 1.33 1.33 0 0 1 .8.6c.53.86 1 1.77 1.49 2.63.13.22.45.33.69.49a3.2 3.2 0 0 0 .26-.75 8.25 8.25 0 0 0 0-1.48c-.07-.87-.1-.86-.9-1.43" data-name="Article table2"/></symbol></svg>