<svg id="Layer_1" data-name="Layer 1" xmlns="http://www.w3.org/2000/svg" viewBox="0 0 26 26"><defs><style>.cls-1{fill:#fff;}</style></defs><title>fb</title><g id="Article_table2" data-name="Article table2"><g id="Group-4"><path id="Fill-1" class="cls-1" d="M17,5.72c0,.81,0,1.53,0,2.24,0,.39-.19.48-.53.48-.52,0-1,0-1.57,0a.69.69,0,0,0-.81.7c0,.56,0,1.13,0,1.78h2.86v2.48H14.08V20.7H11.15V13.44H8.62V10.89h1.49c1,0,1,0,1-1a4.18,4.18,0,0,1,.57-2.53,3.32,3.32,0,0,1,2.62-1.63c.87-.06,1.74,0,2.66,0"/></g></g></svg>