<svg id="Layer_1" data-name="Layer 1" xmlns="http://www.w3.org/2000/svg" viewBox="0 0 26 26"><defs><style>.cls-1{fill:#fff;}</style></defs><title>vk</title><g id="Article_table2" data-name="Article table2"><g id="Group-4"><path id="Fill-1" class="cls-1" d="M10.3,9.13a4.14,4.14,0,0,1,1.05-.42,10.73,10.73,0,0,1,1.93,0c.74.05,1,.33,1,1.09s-.06,1.46,0,2.19a4.1,4.1,0,0,0,.17.82l.36.21c.16-.28.33-.55.49-.83.48-.86,1-1.72,1.41-2.6A.8.8,0,0,1,17.47,9c.73,0,1.46,0,2.2,0s.91.33.58,1-.77,1.24-1.18,1.84c-.19.28-.42.54-.63.82-.64.87-.62,1,.14,1.72a18.33,18.33,0,0,1,1.51,1.67,1,1,0,0,1,.2.85c-.11.21-.53.26-.82.37a1.74,1.74,0,0,1-.32,0,3.52,3.52,0,0,1-3.75-1.54c-.13-.2-.55-.43-.67-.36a1.13,1.13,0,0,0-.43.71c-.23,1.2-.22,1.19-1.42,1.19a5.23,5.23,0,0,1-4.06-1.94A22.31,22.31,0,0,1,5.49,9.77c-.21-.47,0-.71.45-.72a13,13,0,0,1,2,0,1.33,1.33,0,0,1,.8.6c.53.86,1,1.77,1.49,2.63.13.22.45.33.69.49a3.2,3.2,0,0,0,.26-.75,8.25,8.25,0,0,0,0-1.48c-.07-.87-.1-.86-.9-1.43"/></g></g></svg>